<?xml version="1.0" encoding="utf-8"?>
<svg version="1.1" xmlns="http://www.w3.org/2000/svg" xmlns:xlink="http://www.w3.org/1999/xlink" height="17.90000000000009" width="18">
  <defs>
    <path id="path-1" opacity="1" fill-rule="evenodd" d="M9.9,9 L17.6,1.3000000000000003 C17.900000000000002,1.0000000000000002 17.900000000000002,0.6000000000000001 17.6,0.3000000000000002 C17.3,1.7900000000000002e-16 16.900000000000002,1.7900000000000002e-16 16.6,0.3000000000000002 L9,8 L1.2999999999999998,0.30000000000000004 C1.0000000000000002,0 0.6000000000000001,0 0.29999999999999993,0.30000000000000004 C0,0.6 0,0.9999999999999999 0.29999999999999993,1.3 L8,9 L0.3000000000000001,16.700000000000003 C1.8000000000000004e-16,17.000000000000004 1.8000000000000004e-16,17.400000000000002 0.3000000000000001,17.700000000000003 C0.40000000000000024,17.800000000000004 0.6000000000000002,17.900000000000002 0.8000000000000003,17.900000000000002 C1.0000000000000004,17.900000000000002 1.2000000000000002,17.8 1.3000000000000005,17.700000000000003 L9,10.000000000000002 L16.700000000000003,17.700000000000003 C16.800000000000004,17.800000000000004 17.000000000000004,17.900000000000002 17.200000000000003,17.900000000000002 C17.400000000000002,17.900000000000002 17.6,17.8 17.700000000000003,17.700000000000003 C18.000000000000004,17.400000000000002 18.000000000000004,17.000000000000004 17.700000000000003,16.700000000000003 L9.9,9Z"/>
  </defs>
  <g opacity="1">
    <g opacity="1">
      <use xlink:href="#path-1" fill="rgb(0,0,0)" fill-opacity="1"/>
    </g>
  </g>
</svg>