<?xml version="1.0" encoding="utf-8"?>
<svg version="1.1" xmlns="http://www.w3.org/2000/svg" xmlns:xlink="http://www.w3.org/1999/xlink" height="14.5" width="24.59999999999991">
  <defs>
    <path id="path-1" opacity="1" fill-rule="evenodd" d="M23.8,1.4 L0.7,1.4 C0.2999999999999999,1.4 0,1.0999999999999999 0,0.7 C0,0.3 0.2999999999999999,0 0.7,0 L23.8,0 C24.2,0 24.5,0.3 24.5,0.7 C24.5,1.0999999999999999 24.2,1.4 23.8,1.4Z"/>
    <path id="path-2" opacity="1" fill-rule="evenodd" d="M23.8,7.8999999999999995 L0.7,7.8999999999999995 C0.2999999999999999,7.8999999999999995 0,7.6 0,7.199999999999999 C0,6.799999999999999 0.2999999999999999,6.499999999999999 0.7,6.499999999999999 L23.8,6.499999999999999 C24.2,6.499999999999999 24.5,6.799999999999999 24.5,7.199999999999999 C24.5,7.6 24.2,7.8999999999999995 23.8,7.8999999999999995Z"/>
    <path id="path-3" opacity="1" fill-rule="evenodd" d="M23.799999999999912,14.499999999999908 L12.299999999999912,14.499999999999908 C11.899999999999912,14.499999999999908 11.599999999999913,14.199999999999907 11.599999999999913,13.799999999999908 C11.599999999999913,13.39999999999991 11.899999999999913,13.099999999999909 12.299999999999912,13.099999999999909 L23.89999999999991,13.099999999999909 C24.29999999999991,13.099999999999909 24.59999999999991,13.39999999999991 24.59999999999991,13.799999999999908 C24.59999999999991,14.199999999999907 24.19999999999991,14.499999999999908 23.799999999999912,14.499999999999908Z"/>
  </defs>
  <g opacity="1">
    <g opacity="1">
      <g opacity="1">
        <use xlink:href="#path-1" fill="rgb(255,255,255)" fill-opacity="1"/>
      </g>
      <g opacity="1">
        <use xlink:href="#path-2" fill="rgb(255,255,255)" fill-opacity="1"/>
      </g>
      <g opacity="1">
        <use xlink:href="#path-3" fill="rgb(255,255,255)" fill-opacity="1"/>
      </g>
    </g>
  </g>
</svg>