<?xml version="1.0" encoding="utf-8"?>
<svg version="1.1" xmlns="http://www.w3.org/2000/svg" xmlns:xlink="http://www.w3.org/1999/xlink" height="21.08000000000004" width="26.18000000000029">
  <defs>
    <path id="path-1" opacity="1" fill-rule="evenodd" d="M24.040000915527344,0 L1.9700000286102295,0 C0.8899999856948853,0 0,0.8899999856948853 0,1.9700000286102295 L0,19.110000610351562 C0,20.200000762939453 0.8899999856948853,21.079999923706055 1.9700000286102295,21.079999923706055 L24.030000686645508,21.079999923706055 C25.1200008392334,21.079999923706055 26,20.190000534057617 26,19.110000610351562 L26,1.9700000286102295 C26.010000228881836,0.8899999856948853 25.1299991607666,0 24.040000915527344,0 L24.040000915527344,0ZM1.9700000286102295,1.3799999952316284 L24.029998779296875,1.3799999952316284 C24.31999969482422,1.3799999952316284 24.559999465942383,1.600000023841858 24.600000381469727,1.8799999952316284 L13,11.130000114440918 L1.399999976158142,1.8899999856948853 C1.4499999284744263,1.600000023841858 1.6799999475479126,1.3799999952316284 1.9700000286102295,1.3799999952316284 L1.9700000286102295,1.3799999952316284ZM1.9700000286102295,19.69999885559082 L24.03999900817871,19.69999885559082 C24.35999870300293,19.69999885559082 24.6299991607666,19.440000534057617 24.619998931884766,19.110000610351562 L24.619998931884766,3.640000104904175 L13.430000305175781,12.5600004196167 C13.300000190734863,12.660000801086426 13.15000057220459,12.710000038146973 13,12.710000038146973 C12.850000381469727,12.710000038146973 12.699999809265137,12.660000801086426 12.569999694824219,12.5600004196167 L1.3799999952316284,3.640000104904175 L1.3799999952316284,19.110000610351562 C1.3799999952316284,19.43000030517578 1.6399999856948853,19.69999885559082 1.9700000286102295,19.69999885559082 L1.9700000286102295,19.69999885559082Z"/>
  </defs>
  <g opacity="1">
    <g opacity="1">
      <use xlink:href="#path-1" fill="rgb(20,137,203)" fill-opacity="1"/>
    </g>
  </g>
</svg>