<?xml version="1.0" encoding="utf-8"?>
<svg version="1.1" xmlns="http://www.w3.org/2000/svg" xmlns:xlink="http://www.w3.org/1999/xlink" height="24.700011456012817" width="27.200000000000045">
  <defs>
    <path id="path-1" opacity="1" fill-rule="evenodd" d="M13.015206336975098,23.67529296875 C13.115205764770508,23.775293350219727 13.315205574035645,23.875293731689453 13.515206336975098,23.875293731689453 C13.715206146240234,23.875293731689453 13.915205955505371,23.775293350219727 14.015206336975098,23.67529296875 L20.415206909179688,16.975292205810547 L21.415206909179688,15.975293159484863 C22.015207290649414,15.475293159484863 22.515207290649414,14.875293731689453 23.015207290649414,14.375293731689453 L23.81520652770996,13.57529354095459 C24.31520652770996,12.97529411315918 24.81520652770996,12.47529411315918 25.31520652770996,11.875293731689453 C26.415206909179688,10.47529411315918 26.915206909179688,9.07529354095459 27.015207290649414,7.075294017791748 C27.11520767211914,5.47529411315918 26.81520652770996,4.075294017791748 26.015207290649414,2.9752936363220215 C24.11520767211914,0.3752937912940979 19.915206909179688,-0.72470623254776 17.11520767211914,0.6752937436103821 C15.815205574035645,1.3752937316894531 14.615205764770508,2.375293731689453 13.515206336975098,3.7752935886383057 C12.415205955505371,2.375293731689453 11.215206146240234,1.3752937316894531 9.915205955505371,0.6752937436103821 C7.115206241607666,-0.8247062563896179 2.91520619392395,0.27529376745224 1.015206217765808,2.9752936363220215 C0.31520622968673706,4.075294017791748 -0.08479378372430801,5.47529411315918 0.015206217765808105,7.075294017791748 C0.11520621925592422,9.07529354095459 0.7152062058448792,10.57529354095459 1.7152061462402344,11.97529411315918 C2.115206241607666,12.57529354095459 2.7152061462402344,13.175293922424316 3.2152061462402344,13.675293922424316 C3.5152060985565186,13.875293731689453 3.7152061462402344,14.175293922424316 4.015206336975098,14.47529411315918 L5.615206241607666,16.075292587280273 L6.615206241607666,17.075292587280273 L13.015206336975098,23.67529296875 L13.015206336975098,23.67529296875ZM2.2152061462402344,3.875293731689453 C3.2152061462402344,2.375293731689453 5.215206146240234,1.475293755531311 7.115205764770508,1.475293755531311 C7.915205955505371,1.475293755531311 8.615205764770508,1.6752936840057373 9.115205764770508,1.975293755531311 C10.515206336975098,2.7752938270568848 11.715206146240234,3.875293731689453 12.815205574035645,5.4752936363220215 C12.915205955505371,5.675293922424316 13.215206146240234,5.775293827056885 13.415205955505371,5.775293827056885 C13.615205764770508,5.775293827056885 13.915205955505371,5.675293922424316 14.015206336975098,5.4752936363220215 C15.115205764770508,3.875293731689453 16.31520652770996,2.6752936840057373 17.715206146240234,1.975293755531311 C19.915206909179688,0.8752937316894531 23.31520652770996,1.7752937078475952 24.81520652770996,3.875293731689453 C25.61520767211914,4.9752936363220215 25.61520767211914,6.175293922424316 25.61520767211914,7.07529354095459 C25.515207290649414,8.775293350219727 25.11520767211914,9.97529411315918 24.215206146240234,11.07529354095459 C23.81520652770996,11.57529354095459 23.31520652770996,12.07529354095459 22.81520652770996,12.57529354095459 L21.915206909179688,13.47529411315918 C21.415206909179688,14.07529354095459 20.915206909179688,14.57529354095459 20.415206909179688,15.07529354095459 L19.415206909179688,16.075294494628906 L13.515206336975098,22.17529296875 L7.615205764770508,16.075294494628906 L6.615205764770508,15.07529354095459 C6.115205764770508,14.57529354095459 5.615205764770508,13.97529411315918 5.115206241607666,13.47529411315918 L4.215206146240234,12.57529354095459 C3.7152061462402344,12.07529354095459 3.2152061462402344,11.57529354095459 2.8152060508728027,11.07529354095459 C2.0152063369750977,9.875293731689453 1.515206217765808,8.675293922424316 1.4152061939239502,7.07529354095459 C1.4152061939239502,6.175293922424316 1.515206217765808,4.875293731689453 2.2152061462402344,3.875293731689453 L2.2152061462402344,3.875293731689453Z"/>
  </defs>
  <g transform="translate(0.08479378223410095, 0.8247062802315668)" opacity="1">
    <g opacity="1">
      <use xlink:href="#path-1" fill="rgb(20,137,203)" fill-opacity="1"/>
    </g>
  </g>
</svg>