<?xml version="1.0" encoding="utf-8"?>
<svg version="1.1" xmlns="http://www.w3.org/2000/svg" xmlns:xlink="http://www.w3.org/1999/xlink" height="26.5" width="26.5">
  <defs>
    <path id="path-1" opacity="1" fill-rule="evenodd" d="M3.799999952316284,6.5 C3.799999952316284,10.199999809265137 6.800000190734863,13.100000381469727 10.399999380111694,13.100000381469727 C13.999999761581421,13.100000381469727 16.99999976158142,10.300000190734863 16.99999976158142,6.599999904632568 C16.99999976158142,2.9000000953674316 13.999999761581421,0 10.399999380111694,0 C6.800000190734863,0 3.799999952316284,2.799999952316284 3.799999952316284,6.5 L3.799999952316284,6.5ZM5.300000190734863,6.599999904632568 C5.300000190734863,3.799999952316284 7.600000381469727,1.5 10.399999380111694,1.5 C13.200000524520874,1.5 15.499999761581421,3.799999952316284 15.499999761581421,6.599999904632568 C15.499999761581421,9.399999618530273 13.200000524520874,11.699999809265137 10.399999380111694,11.699999809265137 C7.600000381469727,11.699999809265137 5.300000190734863,9.399999618530273 5.300000190734863,6.599999904632568 L5.300000190734863,6.599999904632568Z"/>
    <path id="path-2" opacity="1" fill-rule="evenodd" d="M17.099999999999998,17.000000000000085 C15.499999999999998,15.700000000000083 13.299999999999997,14.900000000000084 10.599999999999998,14.900000000000084 L10.099999999999998,14.900000000000084 L9.999999999999998,14.900000000000084 C6.8999999999999995,15.000000000000083 4.499999999999999,15.900000000000084 2.799999999999999,17.70000000000008 C0,20.50000000000008 0.2,24.300000000000082 0.2,24.400000000000084 C0.2,24.800000000000082 0.6000000000000002,25.10000000000008 0.9,25.10000000000008 C1.3,25.10000000000008 1.5999999999999999,24.70000000000008 1.5999999999999999,24.300000000000082 C1.5999999999999999,24.300000000000082 1.4999999999999998,21.000000000000078 3.7,18.70000000000008 C5.2,17.20000000000008 7.4,16.400000000000077 10.2,16.30000000000008 C12.7,16.30000000000008 14.700000000000001,17.000000000000078 16.1,18.20000000000008 C16.5,17.800000000000082 16.8,17.400000000000077 17.099999999999998,17.000000000000085Z"/>
    <path id="path-3" opacity="1" fill-rule="evenodd" d="M16.100000381469727,21.299999237060547 C16.100000381469727,24.200000762939453 18.399999618530273,26.5 21.299999237060547,26.5 C24.200000762939453,26.5 26.5,24.200000762939453 26.5,21.299999237060547 C26.5,18.399999618530273 24.200000762939453,16.100000381469727 21.299999237060547,16.100000381469727 C18.399999618530273,16.100000381469727 16.100000381469727,18.399999618530273 16.100000381469727,21.299999237060547 L16.100000381469727,21.299999237060547ZM17.600000381469727,21.30000114440918 C17.600000381469727,19.30000114440918 19.30000114440918,17.600000381469727 21.30000114440918,17.600000381469727 C23.299999237060547,17.600000381469727 25,19.30000114440918 25,21.30000114440918 C25,23.299999237060547 23.299999237060547,25 21.30000114440918,25 C19.30000114440918,25 17.600000381469727,23.299999237060547 17.600000381469727,21.30000114440918 L17.600000381469727,21.30000114440918Z"/>
    <path id="path-4" opacity="1" fill-rule="evenodd" d="M22.800000000000047,20.699999999999804 L21.90000000000005,20.699999999999804 L21.90000000000005,19.799999999999805 C21.90000000000005,19.499999999999805 21.600000000000048,19.199999999999804 21.300000000000047,19.199999999999804 C21.000000000000046,19.199999999999804 20.700000000000045,19.499999999999805 20.700000000000045,19.799999999999805 L20.700000000000045,20.699999999999804 L19.800000000000047,20.699999999999804 C19.500000000000046,20.699999999999804 19.200000000000045,20.999999999999805 19.200000000000045,21.299999999999805 C19.200000000000045,21.599999999999806 19.500000000000046,21.899999999999807 19.800000000000047,21.899999999999807 L20.700000000000045,21.899999999999807 L20.700000000000045,22.799999999999805 C20.700000000000045,23.099999999999806 21.000000000000046,23.399999999999807 21.300000000000047,23.399999999999807 C21.600000000000048,23.399999999999807 21.90000000000005,23.099999999999806 21.90000000000005,22.799999999999805 L21.90000000000005,21.899999999999807 L22.800000000000047,21.899999999999807 C23.100000000000048,21.899999999999807 23.40000000000005,21.599999999999806 23.40000000000005,21.299999999999805 C23.40000000000005,20.999999999999805 23.100000000000048,20.699999999999804 22.800000000000047,20.699999999999804Z"/>
  </defs>
  <g opacity="1">
    <g opacity="1">
      <use xlink:href="#path-1" fill="rgb(20,137,203)" fill-opacity="1"/>
    </g>
    <g opacity="1">
      <use xlink:href="#path-2" fill="rgb(20,137,203)" fill-opacity="1"/>
    </g>
    <g opacity="1">
      <use xlink:href="#path-3" fill="rgb(20,137,203)" fill-opacity="1"/>
    </g>
    <g opacity="1">
      <use xlink:href="#path-4" fill="rgb(20,137,203)" fill-opacity="1"/>
    </g>
  </g>
</svg>