<?xml version="1.0" encoding="utf-8"?>
<svg version="1.1" xmlns="http://www.w3.org/2000/svg" xmlns:xlink="http://www.w3.org/1999/xlink" height="25.600006848573685" width="25.700000000000045">
  <defs>
    <path id="path-1" opacity="1" fill-rule="evenodd" d="M13.5,24.959808349609375 C13.5,25.259807586669922 13.800000190734863,25.5598087310791 14.100000381469727,25.5598087310791 L14.199999809265137,25.5598087310791 C14.5,25.5598087310791 14.699999809265137,25.459808349609375 14.800000190734863,25.159809112548828 L25.600000381469727,1.0598076581954956 C25.700000762939453,0.8598076105117798 25.600000381469727,0.5598076581954956 25.399999618530273,0.25980761647224426 C25.200000762939453,-0.04019239544868469 24.899999618530273,-0.04019239544868469 24.600000381469727,0.05980760604143143 L0.4000000059604645,10.759807586669922 C0.10000000149011612,10.859807014465332 0,11.259807586669922 0,11.559807777404785 C0,11.859807014465332 0.30000001192092896,12.159807205200195 0.6000000238418579,12.159807205200195 L11.899999618530273,13.759807586669922 L13.5,24.959808349609375 L13.5,24.959808349609375ZM12.699999809265137,12.359807968139648 L3.5,11.059806823730469 L23.5,2.1598076820373535 L14.600000381469727,22.159807205200195 L13.300000190734863,12.959808349609375 C13.300000190734863,12.659807205200195 13,12.359807968139648 12.699999809265137,12.359807968139648 L12.699999809265137,12.359807968139648Z"/>
  </defs>
  <g transform="translate(0, 0.04019239544868469)" opacity="1">
    <g opacity="1">
      <use xlink:href="#path-1" fill="rgb(20,137,203)" fill-opacity="1"/>
    </g>
  </g>
</svg>