<?xml version="1.0" encoding="utf-8"?>
<svg version="1.1" xmlns="http://www.w3.org/2000/svg" xmlns:xlink="http://www.w3.org/1999/xlink" height="26.529999999999973" width="21.5">
  <defs>
    <path id="path-1" opacity="1" fill-rule="evenodd" d="M19.25,9.795000076293945 L16.219999313354492,9.795000076293945 L16.219999313354492,5.294999599456787 C16.219999313354492,2.174999713897705 13.710000038146973,-0.2650003433227539 10.5,-0.2650003433227539 C7.289999961853027,-0.2650003433227539 4.78000020980835,2.174999713897705 4.78000020980835,5.294999599456787 L4.78000020980835,9.795000076293945 L1.75,9.795000076293945 C0.6499999761581421,9.795000076293945 -0.25,10.694999694824219 -0.25,11.795000076293945 L-0.25,24.26499843597412 C-0.25,25.364996910095215 0.6499999761581421,26.26499843597412 1.75,26.26499843597412 L19.25,26.26499843597412 C20.350000381469727,26.26499843597412 21.25,25.364996910095215 21.25,24.26499843597412 L21.25,11.795000076293945 C21.25,10.694999694824219 20.350000381469727,9.795000076293945 19.25,9.795000076293945 L19.25,9.795000076293945ZM6.159999847412109,5.294999599456787 C6.159999847412109,2.9549996852874756 8.069999694824219,1.1249996423721313 10.5,1.1249996423721313 C12.930000305175781,1.1249996423721313 14.84000015258789,2.9549996852874756 14.84000015258789,5.294999599456787 L14.84000015258789,9.795000076293945 L6.159999847412109,9.795000076293945 L6.159999847412109,5.294999599456787 L6.159999847412109,5.294999599456787ZM19.25,24.884997367858887 C19.589998245239258,24.884997367858887 19.869998931884766,24.60499858856201 19.869998931884766,24.26499843597412 L19.869998931884766,11.794999122619629 C19.869998931884766,11.454998970031738 19.589998245239258,11.174999237060547 19.25,11.174999237060547 L1.75,11.174999237060547 C1.409999966621399,11.174999237060547 1.1299999952316284,11.454998970031738 1.1299999952316284,11.794999122619629 L1.1299999952316284,24.26499843597412 C1.1299999952316284,24.60499858856201 1.409999966621399,24.884997367858887 1.75,24.884997367858887 L19.25,24.884997367858887 L19.25,24.884997367858887Z"/>
    <path id="path-2" opacity="1" fill-rule="evenodd" d="M8.020000457763672,16.594999313354492 C8.020000457763672,15.22499942779541 9.130000114440918,14.114999771118164 10.5,14.114999771118164 C11.870000839233398,14.114999771118164 12.980000495910645,15.22499942779541 12.980000495910645,16.594999313354492 C12.980000495910645,17.71500015258789 12.220000267028809,18.665000915527344 11.190000534057617,18.96500015258789 L11.190000534057617,21.244998931884766 C11.190000534057617,21.625 10.880000114440918,21.934999465942383 10.5,21.934999465942383 C10.120000839233398,21.934999465942383 9.8100004196167,21.625 9.8100004196167,21.244998931884766 L9.8100004196167,18.96500015258789 C8.780000686645508,18.665000915527344 8.020000457763672,17.725000381469727 8.020000457763672,16.594999313354492 L8.020000457763672,16.594999313354492ZM9.399999618530273,16.594999313354492 C9.399999618530273,17.204999923706055 9.889999389648438,17.69499969482422 10.5,17.69499969482422 C11.109999656677246,17.69499969482422 11.59999942779541,17.204999923706055 11.59999942779541,16.594999313354492 C11.59999942779541,15.984999656677246 11.109999656677246,15.494999885559082 10.5,15.494999885559082 C9.889999389648438,15.494999885559082 9.399999618530273,15.984999656677246 9.399999618530273,16.594999313354492 L9.399999618530273,16.594999313354492Z"/>
  </defs>
  <g transform="translate(0.25, 0.2650003433227539)" opacity="1">
    <g opacity="1">
      <use xlink:href="#path-1" fill="rgb(20,137,203)" fill-opacity="1"/>
    </g>
    <g opacity="1">
      <use xlink:href="#path-2" fill="rgb(20,137,203)" fill-opacity="1"/>
    </g>
  </g>
</svg>