<?xml version="1.0" encoding="utf-8"?>
<svg version="1.1" xmlns="http://www.w3.org/2000/svg" xmlns:xlink="http://www.w3.org/1999/xlink" height="49.900000000000034" width="62.600000000000136">
  <defs>
    <path id="path-1" opacity="1" fill-rule="evenodd" d="M17.5,11.227872848510742 L6.699999809265137,27.027873039245605 C11.799999237060547,32.1278715133667 18.099998474121094,30.227869987487793 24.599997520446777,26.927870750427246 C23.90000057220459,25.927870750427246 23.499999046325684,24.72787380218506 23.499999046325684,23.427870750427246 C23.499999046325684,19.927870750427246 26.40000057220459,17.027873039245605 29.999999046325684,17.027873039245605 C32.69999980926514,17.027873039245605 34.999999046325684,18.6278715133667 35.999999046325684,20.927870750427246 C41.19999980926514,18.527873039245605 46.19999980926514,17.1278715133667 50.69999980926514,19.6278715133667 L44.29999828338623,10.027872085571289 C35.40000057220459,-4.872127532958984 25.699999809265137,-2.0721275806427 17.5,11.227872848510742 L17.5,11.227872848510742ZM32.79999828338623,10.927872657775879 L32.499999046325684,14.327873229980469 C32.29999828338623,16.22787380218506 30.100001335144043,16.327872276306152 30.40000057220459,14.427872657775879 L31.100001335144043,10.427872657775879 C31.300002098083496,9.027873039245605 32.90000057220459,8.927872657775879 32.79999828338623,10.927872657775879 L32.79999828338623,10.927872657775879ZM26.29999828338623,15.027872085571289 L24.199999809265137,12.227872848510742 C22.999999046325684,10.627872467041016 22.399999618530273,11.927872657775879 22.999999046325684,13.127872467041016 L24.600001335144043,16.327872276306152 C25.499999046325684,18.027873039245605 27.499999046325684,16.527873039245605 26.29999828338623,15.027872085571289 L26.29999828338623,15.027872085571289ZM40.60000133514404,14.727872848510742 L37.40000057220459,17.927870750427246 C35.999999046325684,19.22787380218506 34.40000057220459,17.6278715133667 35.800002098083496,16.527873039245605 L39.499999046325684,13.727872848510742 C40.60000133514404,12.927872657775879 41.999999046325684,13.427872657775879 40.60000133514404,14.727872848510742 L40.60000133514404,14.727872848510742ZM21.400001525878906,18.427870750427246 L18.400001525878906,17.027873039245605 C16.700000762939453,16.1278715133667 16.200000762939453,17.6278715133667 17.30000114440918,18.327872276306152 L20.80000114440918,20.427870750427246 C22.400001525878906,21.327872276306152 23.100001335144043,19.22787380218506 21.400001525878906,18.427870750427246 L21.400001525878906,18.427870750427246ZM20.399999618530273,24.42787456512451 L17.100000381469727,25.527873039245605 C15.199999809265137,26.1278715133667 16.200000762939453,27.1278715133667 17.5,26.92787456512451 L21.100000381469727,26.42787456512451 C22.90000057220459,26.22787380218506 22.200000762939453,23.827872276306152 20.399999618530273,24.42787456512451 L20.399999618530273,24.42787456512451Z"/>
    <path id="path-2" opacity="1" fill-rule="evenodd" d="M62.6,37.5278726577759 C57,35.1278726577759 47.6,34.4278726577759 28.4,39.8278726577759 C10,45.0278726577759 2,39.5278726577759 0,37.5278726577759 L4.9,29.927872657775904 C20.4,43.5278726577759 36.9,14.527872657775902 52.699999999999996,22.5278726577759 L62.6,37.5278726577759Z"/>
  </defs>
  <g transform="translate(0, 4.8721273422241325)" opacity="1">
    <g opacity="1">
      <g opacity="1">
        <use xlink:href="#path-1" fill="rgb(255,255,255)" fill-opacity="1"/>
      </g>
      <g opacity="1">
        <use xlink:href="#path-2" fill="rgb(255,255,255)" fill-opacity="1"/>
      </g>
    </g>
  </g>
</svg>