<?xml version="1.0" encoding="utf-8"?>
<!-- Generator: Adobe Illustrator 23.0.2, SVG Export Plug-In . SVG Version: 6.00 Build 0)  -->
<svg version="1.1" id="Layer_1" xmlns="http://www.w3.org/2000/svg" xmlns:xlink="http://www.w3.org/1999/xlink" x="0px" y="0px"
	 viewBox="0 0 27 24" style="enable-background:new 0 0 27 24;" xml:space="preserve">
<style type="text/css">
	.st0{fill-rule:evenodd;clip-rule:evenodd;fill:#FFFFFF;}
</style>
<g>
	<g>
		<g>
			<path id="path-2" class="st0" d="M26.1,0H18c-1.7,0-3.6,2.3-4.5,3.9C12.5,2.3,10.7,0,8.9,0H0.8C0.3,0,0,0.3,0,0.8v18.7
				c0,0.4,0.3,0.8,0.8,0.8h8.2c1,0,3.3,2.5,3.7,3.4c0.1,0.3,0.4,0.4,0.7,0.4h0.3c0.3,0,0.5-0.2,0.7-0.4c0.5-1,2.6-3.4,3.7-3.4h8.2
				c0.4,0,0.8-0.3,0.8-0.8V0.8C26.9,0.3,26.6,0,26.1,0L26.1,0z M8.9,18.7H1.4V1.4h7.5c1.3,0,3.4,3,3.8,4.2v15.6
				C11.6,20,10.2,18.7,8.9,18.7L8.9,18.7z M18,18.7h7.5V1.4H18c-1.2,0-3.4,3-3.8,4.2v15.5C15.2,20,16.6,18.7,18,18.7L18,18.7z"/>
		</g>
	</g>
</g>
</svg>
