<?xml version="1.0" encoding="utf-8"?>
<svg version="1.1" xmlns="http://www.w3.org/2000/svg" xmlns:xlink="http://www.w3.org/1999/xlink" height="25.40001068734" width="31.00000000000017">
  <defs>
    <path id="path-1" opacity="1" fill-rule="evenodd" d="M17,6.600010591972932 C17,10.300010878075227 14,13.2000104966055 10.399999618530273,13.2000104966055 C6.800000190734863,13.2000104966055 3.9000000953674316,10.300010878075227 3.9000000953674316,6.7000104966055005 C3.9000000953674316,3.000010687340364 6.699999809265137,0.000010687340363801923 10.399999618530273,0.000010687340363801923 C14.100000381469727,0.000010687340363801923 17,3.000010687340364 17,6.600010591972932 L17,6.600010591972932ZM15.5,6.7000104966055005 C15.5,3.9000105442892163 13.200000762939453,1.6000105919729322 10.399999618530273,1.6000105919729322 C7.600000381469727,1.6000105919729322 5.400000095367432,3.9000105442892163 5.400000095367432,6.7000104966055005 C5.400000095367432,9.400011259544954 7.600000381469727,11.800010878075227 10.399999618530273,11.800010878075227 C13.200000762939453,11.800010878075227 15.5,9.500010687340364 15.5,6.7000104966055005 L15.5,6.7000104966055005Z"/>
    <path id="path-2" opacity="1" fill-rule="evenodd" d="M10.6,15.000010687340412 L10.1,15.000010687340412 L10,15.000010687340412 C6.900000000000001,15.100010687340411 4.500000000000001,16.000010687340414 2.8000000000000007,17.80001068734041 C0,20.60001068734041 0.19999999999999998,24.400010687340412 0.19999999999999998,24.50001068734041 C0.19999999999999998,24.90001068734041 0.6000000000000001,25.20001068734041 0.9,25.20001068734041 C1.3,25.20001068734041 1.5999999999999999,24.80001068734041 1.5999999999999999,24.40001068734041 C1.5999999999999999,24.40001068734041 1.4999999999999996,21.100010687340408 3.7,18.800010687340407 C5.2,17.300010687340407 7.3,16.500010687340406 10.2,16.40001068734041 C13,16.40001068734041 15.2,17.20001068734041 16.7,18.800010687340407 C18.9,21.100010687340408 18.8,24.40001068734041 18.8,24.40001068734041 C18.8,24.800010687340407 19.1,25.20001068734041 19.5,25.20001068734041 C19.9,25.20001068734041 20.2,24.90001068734041 20.2,24.50001068734041 C20.2,24.30001068734041 20.4,20.60001068734041 17.7,17.80001068734041 C16.2,16.10001068734041 13.700000000000001,15.100010687340411 10.6,15.000010687340412Z"/>
    <path id="path-3" opacity="1" fill-rule="evenodd" d="M28.399999618530273,11.40001106262207 C28.399999618530273,14.200010299682617 26.200000762939453,16.400010585784912 23.399999618530273,16.400010585784912 C20.600000381469727,16.400010585784912 18.399999618530273,14.200010299682617 18.399999618530273,11.40001106262207 C18.399999618530273,8.600010871887207 20.600000381469727,6.400010585784912 23.399999618530273,6.400010585784912 C26.200000762939453,6.400010585784912 28.399999618530273,8.600010871887207 28.399999618530273,11.40001106262207 L28.399999618530273,11.40001106262207ZM26.899999618530273,11.40001106262207 C26.899999618530273,9.50001049041748 25.299999237060547,7.900010585784912 23.399999618530273,7.900010585784912 C21.399999618530273,7.900010585784912 19.899999618530273,9.50001049041748 19.899999618530273,11.40001106262207 C19.899999618530273,13.300010681152344 21.5,14.900010585784912 23.399999618530273,14.900010585784912 C25.299999237060547,14.900010585784912 26.899999618530273,13.300010681152344 26.899999618530273,11.40001106262207 L26.899999618530273,11.40001106262207Z"/>
    <path id="path-4" opacity="1" fill-rule="evenodd" d="M29.000000000000174,19.50001068734 C27.700000000000173,18.100010687340003 25.900000000000173,17.40001068734 23.500000000000174,17.40001068734 L23.000000000000174,17.40001068734 L22.900000000000173,17.40001068734 C21.500000000000174,17.40001068734 20.30000000000017,17.70001068734 19.30000000000017,18.20001068734 C19.600000000000172,18.60001068734 19.900000000000173,19.10001068734 20.100000000000172,19.50001068734 C21.00000000000017,19.100010687340003 22.00000000000017,18.90001068734 23.100000000000172,18.90001068734 C25.100000000000172,18.90001068734 26.700000000000173,19.50001068734 27.700000000000173,20.60001068734 C29.200000000000173,22.20001068734 29.200000000000173,24.500010687339998 29.200000000000173,24.60001068734 C29.200000000000173,25.000010687339998 29.500000000000174,25.40001068734 29.900000000000173,25.40001068734 C30.30000000000017,25.40001068734 30.600000000000172,25.10001068734 30.600000000000172,24.70001068734 C30.80000000000017,24.40001068734 31.00000000000017,21.60001068734 29.000000000000174,19.50001068734Z"/>
  </defs>
  <g opacity="1">
    <g opacity="1">
      <use xlink:href="#path-1" fill="rgb(255,255,255)" fill-opacity="1"/>
    </g>
    <g opacity="1">
      <use xlink:href="#path-2" fill="rgb(255,255,255)" fill-opacity="1"/>
    </g>
    <g opacity="1">
      <use xlink:href="#path-3" fill="rgb(255,255,255)" fill-opacity="1"/>
    </g>
    <g opacity="1">
      <use xlink:href="#path-4" fill="rgb(255,255,255)" fill-opacity="1"/>
    </g>
  </g>
</svg>