<?xml version="1.0" encoding="utf-8"?>
<svg version="1.1" xmlns="http://www.w3.org/2000/svg" xmlns:xlink="http://www.w3.org/1999/xlink" height="28" width="28.00000515185593">
  <defs>
    <path id="path-1" opacity="1" fill-rule="evenodd" d="M9.909558296203613,7.325812816619873 C10.158594131469727,7.190918445587158 10.459512710571289,7.201294898986816 10.698172569274902,7.346566200256348 L19.943639755249023,13.126279830932617 C20.17192268371582,13.271551132202148 20.30681610107422,13.520586967468262 20.30681610107422,13.790376663208008 C20.30681610107422,14.060165405273438 20.17192268371582,14.309202194213867 19.943639755249023,14.454472541809082 L10.698172569274902,20.23418617248535 C10.573654174804688,20.306821823120117 10.428382873535156,20.34832763671875 10.283112525939941,20.34832763671875 C10.158594131469727,20.34832763671875 10.023699760437012,20.317197799682617 9.909558296203613,20.254940032958984 C9.660521507263184,20.109668731689453 9.504874229431152,19.850255966186523 9.504874229431152,19.57008934020996 L9.504874229431152,8.010662078857422 C9.504874229431152,7.720120429992676 9.660521507263184,7.460707664489746 9.909558296203613,7.325812816619873 L9.909558296203613,7.325812816619873ZM11.061349868774414,9.411491394042969 L11.061349868774414,18.158885955810547 L18.05511474609375,13.780000686645508 L11.061349868774414,9.411491394042969 L11.061349868774414,9.411491394042969Z"/>
    <path id="path-2" opacity="1" fill-rule="evenodd" d="M-0.000005151855930307647,13.779999732971191 C-0.000005151855930307647,6.1843976974487305 6.1843925455928,0 13.779994581115261,0 C21.38597354687454,0 27.570372197997585,6.1843976974487305 27.570372197997585,13.779999732971191 C27.570372197997585,21.37560272216797 21.37559757031204,27.559999465942383 13.779994581115261,27.559999465942383 C6.1843925455928,27.559999465942383 -0.000005151855930307647,21.37560272216797 -0.000005151855930307647,13.779999732971191 L-0.000005151855930307647,13.779999732971191ZM1.5564707259059105,13.790376663208008 C1.5564707259059105,20.524728775024414 7.035266015899197,26.013900756835938 13.779994581115261,26.013900756835938 C20.524723623168484,26.013900756835938 26.013895604980007,20.514352798461914 26.013895604980007,13.779999732971191 C26.013895604980007,7.045647621154785 20.514347646605984,1.5564758777618408 13.779994581115261,1.5564758777618408 C7.045642469298855,1.5564758777618408 1.5564707259059105,7.056023597717285 1.5564707259059105,13.790376663208008 L1.5564707259059105,13.790376663208008Z"/>
  </defs>
  <g transform="translate(0.000005151855930307647, 0)" opacity="1">
    <g opacity="1">
      <use xlink:href="#path-1" fill="rgb(255,255,255)" fill-opacity="1"/>
    </g>
    <g opacity="1">
      <use xlink:href="#path-2" fill="rgb(255,255,255)" fill-opacity="1"/>
    </g>
  </g>
</svg>