<?xml version="1.0" encoding="utf-8"?>
<svg version="1.1" xmlns="http://www.w3.org/2000/svg" xmlns:xlink="http://www.w3.org/1999/xlink" height="27.560000020107594" width="27.570378687012123">
  <defs>
    <path id="path-1" opacity="1" fill-rule="evenodd" d="M9.90955105029343,7.325813293457031 C10.158589746582493,7.19091796875 10.459508325684055,7.2012939453125 10.698171045410618,7.346565246582031 L19.94363918505903,13.126279830932617 C20.171925928223096,13.271551132202148 20.306813623535618,13.520586013793945 20.306813623535618,13.790374755859375 C20.306813623535618,14.060165405273438 20.171925928223096,14.309200286865234 19.94363918505903,14.454471588134766 L10.698171045410618,20.23418426513672 C10.573659326660618,20.30682373046875 10.428380395996555,20.34832763671875 10.283116724121555,20.34832763671875 C10.158589746582493,20.34832763671875 10.023702051269993,20.31719970703125 9.90955105029343,20.254940032958984 C9.66052761279343,20.109668731689453 9.504872705566868,19.85025405883789 9.504872705566868,19.570091247558594 L9.504872705566868,8.010662078857422 C9.504872705566868,7.720119476318359 9.66052761279343,7.46070671081543 9.90955105029343,7.325813293457031 L9.90955105029343,7.325813293457031ZM11.061360742676243,9.411491394042969 L11.061360742676243,18.158885955810547 L18.055119897949677,13.78000068664551 L11.061360742676243,9.411491394042969 L11.061360742676243,9.411491394042969Z"/>
    <path id="path-2" opacity="1" fill-rule="evenodd" d="M0.000005151855873464228,13.779998779296873 C0.000005151855873464228,6.184398651123045 6.184407617676185,0 13.78000393115274,0 C21.38599147998087,0 27.570378687012116,6.184398651123045 27.570378687012116,13.779998779296873 C27.570378687012116,21.375602722167965 21.37561550341837,27.559997558593746 13.78000393115274,27.559997558593746 C6.184407617676185,27.559997558593746 0.000005151855873464228,21.375602722167965 0.000005151855873464228,13.779998779296873 L0.000005151855873464228,13.779998779296873ZM1.556477930176184,13.790376663208004 C1.556477930176184,20.524726867675774 7.035268213379299,26.01390075683593 13.78000393115274,26.01390075683593 C20.52472439013712,26.01390075683593 26.013905908691765,20.51435089111328 26.013905908691765,13.779998779296873 C26.013905908691765,7.045646667480469 20.51434841357462,1.5564756393432613 13.78000393115274,1.5564756393432613 C7.04564418994181,1.5564756393432613 1.556477930176184,7.056022644042968 1.556477930176184,13.790376663208004 L1.556477930176184,13.790376663208004Z"/>
  </defs>
  <g opacity="1">
    <g opacity="1">
      <use xlink:href="#path-1" fill="rgb(255,255,255)" fill-opacity="1"/>
    </g>
    <g opacity="1">
      <use xlink:href="#path-2" fill="rgb(255,255,255)" fill-opacity="1"/>
    </g>
  </g>
</svg>