<?xml version="1.0" encoding="utf-8"?>
<!-- Generator: Adobe Illustrator 23.0.2, SVG Export Plug-In . SVG Version: 6.00 Build 0)  -->
<svg version="1.1" id="Layer_1" xmlns="http://www.w3.org/2000/svg" xmlns:xlink="http://www.w3.org/1999/xlink" x="0px" y="0px"
	 viewBox="0 0 30.5 25.4" style="enable-background:new 0 0 30.5 25.4;" xml:space="preserve">
<style type="text/css">
	.st0{fill-rule:evenodd;clip-rule:evenodd;fill:#FFFFFF;}
</style>
<g>
	<g>
		<g>
			<path id="path-2" class="st0" d="M16.8,6.6c0,3.7-3,6.6-6.6,6.6c-3.6,0-6.5-2.9-6.5-6.5C3.7,3,6.5,0,10.2,0
				C13.9,0,16.8,3,16.8,6.6L16.8,6.6z M15.3,6.7c0-2.8-2.3-5.1-5.1-5.1c-2.8,0-5,2.3-5,5.1c0,2.7,2.2,5.1,5,5.1
				C13,11.8,15.3,9.5,15.3,6.7L15.3,6.7z"/>
		</g>
	</g>
	<g>
		<g>
			<path id="path-3" class="st0" d="M10.4,15H9.9H9.8c-3.1,0.1-5.5,1-7.2,2.8C-0.2,20.6,0,24.4,0,24.5c0,0.4,0.4,0.7,0.7,0.7
				c0.4,0,0.7-0.4,0.7-0.8c0,0-0.1-3.3,2.1-5.6c1.5-1.5,3.6-2.3,6.5-2.4c2.8,0,5,0.8,6.5,2.4c2.2,2.3,2.1,5.6,2.1,5.6
				c0,0.4,0.3,0.8,0.7,0.8s0.7-0.3,0.7-0.7c0-0.2,0.2-3.9-2.5-6.7C16,16.1,13.5,15.1,10.4,15z"/>
		</g>
	</g>
	<g>
		<g>
			<path id="path-4" class="st0" d="M28.2,11.4c0,2.8-2.2,5-5,5c-2.8,0-5-2.2-5-5s2.2-5,5-5C26,6.4,28.2,8.6,28.2,11.4L28.2,11.4z
				 M26.7,11.4c0-1.9-1.6-3.5-3.5-3.5c-2,0-3.5,1.6-3.5,3.5s1.6,3.5,3.5,3.5C25.1,14.9,26.7,13.3,26.7,11.4L26.7,11.4z"/>
		</g>
	</g>
	<g>
		<g>
			<path id="path-5" class="st0" d="M28.8,19.5c-1.3-1.4-3.1-2.1-5.5-2.1h-0.5h-0.1c-1.4,0-2.6,0.3-3.6,0.8c0.3,0.4,0.6,0.9,0.8,1.3
				c0.9-0.4,1.9-0.6,3-0.6c2,0,3.6,0.6,4.6,1.7c1.5,1.6,1.5,3.9,1.5,4c0,0.4,0.3,0.8,0.7,0.8c0.4,0,0.7-0.3,0.7-0.7
				C30.6,24.4,30.8,21.6,28.8,19.5z"/>
		</g>
	</g>
</g>
</svg>
