<?xml version="1.0" encoding="utf-8"?>
<svg version="1.1" xmlns="http://www.w3.org/2000/svg" xmlns:xlink="http://www.w3.org/1999/xlink" height="24" width="27.000001907348633">
  <defs>
    <path id="path-1" opacity="1" fill-rule="evenodd" d="M26.13523292541504,0.000010685849701985717 L17.967971801757812,0.000010685849701985717 C16.238435745239258,0.000010685849701985717 14.412812232971191,2.2857238816504832 13.451957702636719,3.9047708081488963 C12.491104125976562,2.2857238816504832 10.665480613708496,0.000010685849701985717 8.935943603515625,0.000010685849701985717 L0.7686833143234253,0.000010685849701985717 C0.2882562577724457,0.000010685849701985717 0,0.28572483532479964 0,0.7619151043181773 L0,19.428572850156343 C0,19.80952568523935 0.2882562577724457,20.190476612973725 0.7686833143234253,20.190476612973725 L8.935943603515625,20.190476612973725 C9.896798133850098,20.190476612973725 12.202847480773926,22.666667179990327 12.683274269104004,23.619046406674897 C12.779359817504883,23.90476150982431 13.06761646270752,23.999999241757905 13.35587215423584,23.999999241757905 L13.644128799438477,23.999999241757905 C13.932385444641113,23.999999241757905 14.124555587768555,23.809523777890718 14.316726684570312,23.619046406674897 C14.79715347290039,22.666667179990327 16.911033630371094,20.190476612973725 18.064058303833008,20.190476612973725 L26.2313175201416,20.190476612973725 C26.615659713745117,20.190476612973725 27.000001907348633,19.904763417172944 27.000001907348633,19.428572850156343 L27.000001907348633,0.7619151043181773 C26.903915405273438,0.28572483532479964 26.615659713745117,0.000010685849701985717 26.13523292541504,0.000010685849701985717 L26.13523292541504,0.000010685849701985717ZM8.935943603515625,18.666667179990327 L1.4412811994552612,18.666667179990327 L1.4412811994552612,1.4285814332251903 L8.935943603515625,1.4285814332251903 C10.281139373779297,1.4285814332251903 12.298933029174805,4.476199345517671 12.779359817504883,5.619055943418061 L12.779359817504883,21.238095478940522 C11.626335144042969,19.999999241757905 10.185053825378418,18.666667179990327 8.935943603515625,18.666667179990327 L8.935943603515625,18.666667179990327ZM17.967971801757812,18.666667179990327 L25.462635040283203,18.666667179990327 L25.462635040283203,1.4285814332251903 L17.967971801757812,1.4285814332251903 C16.718862533569336,1.4285814332251903 14.604982376098633,4.380961136746919 14.124555587768555,5.619055943418061 L14.124555587768555,21.142855839658296 C15.181495666503906,19.999999241757905 16.62277603149414,18.666667179990327 17.967971801757812,18.666667179990327 L17.967971801757812,18.666667179990327Z"/>
  </defs>
  <g opacity="1">
    <g opacity="1">
      <use xlink:href="#path-1" fill="rgb(255,255,255)" fill-opacity="1"/>
    </g>
  </g>
</svg>