<?xml version="1.0" encoding="utf-8"?>
<!-- Generator: Adobe Illustrator 23.0.2, SVG Export Plug-In . SVG Version: 6.00 Build 0)  -->
<svg version="1.1" id="Layer_1" xmlns="http://www.w3.org/2000/svg" xmlns:xlink="http://www.w3.org/1999/xlink" x="0px" y="0px"
	 viewBox="0 0 31.1 25.2" style="enable-background:new 0 0 31.1 25.2;" xml:space="preserve">
<style type="text/css">
	.st0{fill-rule:evenodd;clip-rule:evenodd;fill:#FFFFFF;}
</style>
<g>
	<g>
		<g>
			<path id="path-2" class="st0" d="M16,0.1l14.7,10.8c0.4,0.2,0.5,0.7,0.2,1c-0.1,0.2-0.4,0.3-0.6,0.3c-0.1,0-0.3,0-0.4-0.1
				l-2.3-1.7v14c0,0.5-0.4,0.8-0.8,0.8h-8c-0.5,0-0.8-0.4-0.8-0.8v-9.5h-5.1v9.5c0,0.5-0.4,0.8-0.8,0.8h-8c-0.4,0-0.7-0.4-0.7-0.8
				v-14l-2.3,1.7c-0.3,0.2-0.8,0.1-1-0.2c-0.2-0.3-0.1-0.8,0.2-1L15.1,0.1C15.4,0,15.7,0,16,0.1L16,0.1z M19.5,23.6H26V9.4L15.5,1.6
				L5,9.4v14.3h6.3v-9.5c0-0.5,0.4-0.8,0.8-0.8h6.6c0.5,0,0.8,0.4,0.8,0.8V23.6L19.5,23.6z"/>
		</g>
	</g>
</g>
</svg>
