<?xml version="1.0" encoding="utf-8"?>
<svg version="1.1" xmlns="http://www.w3.org/2000/svg" xmlns:xlink="http://www.w3.org/1999/xlink" height="25.299999999999997" width="31.30000000000001">
  <defs>
    <path id="path-1" opacity="1" fill-rule="evenodd" d="M16.004051208496094,0.15001069009304047 L30.704050064086914,10.950010493397713 C31.10405158996582,11.15001030266285 31.204050064086914,11.65001030266285 30.904050827026367,11.950010493397713 C30.80405044555664,12.15001030266285 30.504051208496094,12.250010684132576 30.30405044555664,12.250010684132576 C30.204050064086914,12.250010684132576 30.004051208496094,12.250010684132576 29.904050827026367,12.15001030266285 L27.60405158996582,10.450010493397713 L27.60405158996582,24.450009539723396 C27.60405158996582,24.950009539723396 27.204050064086914,25.250008776783943 26.80405044555664,25.250008776783943 L18.80405044555664,25.250008776783943 C18.30405044555664,25.250008776783943 18.004051208496094,24.85000915825367 18.004051208496094,24.450009539723396 L18.004051208496094,14.950010493397713 L12.90404987335205,14.950010493397713 L12.90404987335205,24.450009539723396 C12.90404987335205,24.950009539723396 12.504050254821777,25.250008776783943 12.104049682617188,25.250008776783943 L4.1040496826171875,25.250008776783943 C3.704049825668335,25.250008776783943 3.404049873352051,24.85000915825367 3.404049873352051,24.450009539723396 L3.404049873352051,10.450010493397713 L1.1040499210357666,12.15001030266285 C0.8040499091148376,12.350010111927986 0.30404993891716003,12.250010684132576 0.1040499359369278,11.950010493397713 C-0.09595006704330444,11.65001030266285 0.004049934446811676,11.15001030266285 0.30404993891716003,10.950010493397713 L15.104049682617188,0.15001069009304047 C15.40404987335205,-0.049989309161901474 15.704050064086914,-0.049989309161901474 16.004051208496094,0.15001069009304047 L16.004051208496094,0.15001069009304047ZM19.50404930114746,23.65001030266285 L26.00404930114746,23.65001030266285 L26.00404930114746,9.350011065602303 L15.504049301147461,1.650010660290718 L5.004049777984619,9.350011065602303 L5.004049777984619,23.65001030266285 L11.30405044555664,23.65001030266285 L11.30405044555664,14.150011256337166 C11.30405044555664,13.650011256337166 11.704050064086914,13.350011065602303 12.104049682617188,13.350011065602303 L18.704050064086914,13.350011065602303 C19.204050064086914,13.350011065602303 19.50404930114746,13.750011637806892 19.50404930114746,14.150011256337166 L19.50404930114746,23.65001030266285 L19.50404930114746,23.65001030266285Z"/>
  </defs>
  <g transform="translate(0.09595006555309737, 0.04998930967940396)" opacity="1">
    <g opacity="1">
      <use xlink:href="#path-1" fill="rgb(255,255,255)" fill-opacity="1"/>
    </g>
  </g>
</svg>