<?xml version="1.0" encoding="utf-8"?>
<svg version="1.1" xmlns="http://www.w3.org/2000/svg" xmlns:xlink="http://www.w3.org/1999/xlink" height="27.110000610351562" width="15.920000076293945">
  <defs>
    <path id="path-1" opacity="1" fill-rule="evenodd" d="M2.5799999237060547,0 L13.34000015258789,0 C14.760000228881836,0 15.920000076293945,1.159999966621399 15.920000076293945,2.5799999237060547 L15.920000076293945,24.530000686645508 C15.920000076293945,25.950000762939453 14.760000228881836,27.110000610351562 13.34000015258789,27.110000610351562 L2.5799999237060547,27.110000610351562 C1.159999966621399,27.110000610351562 0,25.950000762939453 0,24.530000686645508 L0,2.5799999237060547 C0,1.159999966621399 1.159999966621399,0 2.5799999237060547,0 L2.5799999237060547,0ZM2.5799999237060547,1.3799999952316284 L13.34000015258789,1.3799999952316284 C14,1.3799999952316284 14.539999961853027,1.9200000762939453 14.539999961853027,2.570000171661377 L14.539999961853027,3.630000114440918 L1.3799999952316284,3.630000114440918 L1.3799999952316284,2.5799999237060547 C1.3799999952316284,1.9200000762939453 1.9200000762939453,1.3799999952316284 2.5799999237060547,1.3799999952316284 L2.5799999237060547,1.3799999952316284ZM14.529999732971191,5.019999980926514 L1.3799999952316284,5.019999980926514 L1.3799999952316284,20.549999237060547 L14.529999732971191,20.549999237060547 L14.529999732971191,5.019999980926514 L14.529999732971191,5.019999980926514ZM2.5799999237060547,25.73000144958496 L13.34000015258789,25.73000144958496 C14,25.73000144958496 14.529999732971191,25.190000534057617 14.529999732971191,24.540000915527344 L14.529999732971191,21.950000762939453 L1.3799999952316284,21.950000762939453 L1.3799999952316284,24.540000915527344 C1.3799999952316284,25.190000534057617 1.9200000762939453,25.73000144958496 2.5799999237060547,25.73000144958496 L2.5799999237060547,25.73000144958496Z"/>
    <path id="path-2" opacity="1" fill-rule="evenodd" d="M8.02,22.73 C7.3999999999999995,22.7 6.88,23.17 6.84,23.78 C6.8,24.39 7.28,24.92 7.89,24.96 C8.51,24.990000000000002 9.03,24.52 9.07,23.91 C9.11,23.29 8.64,22.76 8.02,22.73Z"/>
  </defs>
  <g opacity="1">
    <g opacity="1">
      <use xlink:href="#path-1" fill="rgb(20,137,203)" fill-opacity="1"/>
    </g>
    <g opacity="1">
      <use xlink:href="#path-2" fill="rgb(20,137,203)" fill-opacity="1"/>
    </g>
  </g>
</svg>