<?xml version="1.0" encoding="utf-8"?>
<svg version="1.1" xmlns="http://www.w3.org/2000/svg" xmlns:xlink="http://www.w3.org/1999/xlink" height="12.00000614019541" width="12.00000614019541">
  <defs>
    <path id="path-1" opacity="1" fill-rule="evenodd" d="M0,6.000002861022949 C0,2.6538474559783936 2.6538474559783936,0 6.000002861022949,0 C9.23077392578125,0 12.000005722045898,2.6538474559783936 12.000005722045898,6.000002861022949 C12.000005722045898,9.346158981323242 9.346158981323242,12.000005722045898 6.000002861022949,12.000005722045898 C2.6538474559783936,12.000005722045898 0,9.346158981323242 0,6.000002861022949 L0,6.000002861022949ZM6.619509696960449,6.628568649291992 L7.858521938323975,6.628568649291992 C8.230225563049316,6.628568649291992 8.6019287109375,6.380069255828857 8.6019287109375,6.007320404052734 C8.6019287109375,5.634571075439453 8.230225563049316,5.26182222366333 7.858521938323975,5.26182222366333 L6.743410587310791,5.26182222366333 L6.743410587310791,4.143575191497803 C6.743410587310791,3.7708261013031006 6.371706962585449,3.3980770111083984 6.000002861022949,3.3980770111083984 C5.628299713134766,3.3980770111083984 5.256595611572266,3.7708261013031006 5.256595611572266,4.143575191497803 L5.256595611572266,5.137572288513184 L4.141484260559082,5.137572288513184 C3.7697806358337402,5.137572288513184 3.3980770111083984,5.510321617126465 3.3980770111083984,5.883070945739746 C3.3980770111083984,6.255819320678711 3.7697806358337402,6.628568649291992 4.141484260559082,6.628568649291992 L5.256595611572266,6.628568649291992 L5.256595611572266,7.871065616607666 C5.256595611572266,8.243814468383789 5.628299713134766,8.492313385009766 5.876101970672607,8.492313385009766 C6.247805595397949,8.492313385009766 6.619509696960449,8.1195650100708 6.619509696960449,7.7468156814575195 L6.619509696960449,6.628568649291992 L6.619509696960449,6.628568649291992Z"/>
  </defs>
  <g opacity="1">
    <g opacity="1">
      <use xlink:href="#path-1" fill="rgb(175,211,95)" fill-opacity="1"/>
    </g>
  </g>
</svg>