<?xml version="1.0" encoding="utf-8"?>
<svg version="1.1" xmlns="http://www.w3.org/2000/svg" xmlns:xlink="http://www.w3.org/1999/xlink" height="25.200000001490196" width="20.5">
  <defs>
    <path id="path-1" opacity="1" fill-rule="evenodd" d="M17,6.599999904632568 C17,10.300000190734863 14,13.199999809265137 10.399999618530273,13.199999809265137 C6.800000190734863,13.199999809265137 3.9000000953674316,10.300000190734863 3.9000000953674316,6.699999809265137 C3.9000000953674316,3 6.800000190734863,0.10000000149011612 10.399999618530273,0 C14.100000381469727,0 17,3 17,6.599999904632568 L17,6.599999904632568ZM15.5,6.699999809265137 C15.5,3.9000000953674316 13.200000762939453,1.600000023841858 10.399999618530273,1.600000023841858 C7.600000381469727,1.600000023841858 5.400000095367432,3.9000000953674316 5.300000190734863,6.699999809265137 C5.300000190734863,9.5 7.600000381469727,11.800000190734863 10.399999618530273,11.800000190734863 C13.200000762939453,11.800000190734863 15.5,9.5 15.5,6.699999809265137 L15.5,6.699999809265137Z"/>
    <path id="path-2" opacity="1" fill-rule="evenodd" d="M17.9,17.800000001490197 C16.2,16.100000001490198 13.7,15.100000001490198 10.6,15.000000001490198 L10,15.000000001490198 C6.900000000000001,15.100000001490198 4.500000000000001,16.0000000014902 2.8000000000000007,17.800000001490197 C0,20.600000001490198 0.2,24.4000000014902 0.2,24.500000001490196 C0.2,24.900000001490195 0.6000000000000001,25.200000001490196 0.8999999999999999,25.200000001490196 C1.3,25.200000001490196 1.6,24.800000001490197 1.6,24.400000001490195 C1.6,24.400000001490195 1.5,21.100000001490194 3.7000000000000006,18.800000001490194 C5.2,17.300000001490194 7.3,16.500000001490193 10.2,16.400000001490195 C13,16.400000001490195 15.2,17.200000001490196 16.7,18.800000001490194 C18.9,21.100000001490194 18.8,24.400000001490195 18.8,24.400000001490195 C18.8,24.800000001490194 19.1,25.200000001490196 19.5,25.200000001490196 C19.9,25.200000001490196 20.2,24.900000001490195 20.2,24.500000001490196 C20.3,24.400000001490195 20.5,20.600000001490198 17.9,17.800000001490197Z"/>
  </defs>
  <g opacity="1">
    <g opacity="1">
      <use xlink:href="#path-1" fill="rgb(20,137,203)" fill-opacity="1"/>
    </g>
    <g opacity="1">
      <use xlink:href="#path-2" fill="rgb(20,137,203)" fill-opacity="1"/>
    </g>
  </g>
</svg>